<svg width="14" height="15" viewBox="0 0 14 15" fill="none" xmlns="http://www.w3.org/2000/svg">
<g clip-path="url(#clip0_6203_659)">
<path d="M6.60026 5.99989H7.73359V4.29989H9.4336V3.16655H7.73359V1.46655H6.60026V3.16655H4.90026V4.29989H6.60026V5.99989ZM4.33359 11.0999C3.71026 11.0999 3.20593 11.6099 3.20593 12.2332C3.20593 12.8566 3.71026 13.3666 4.33359 13.3666C4.95693 13.3666 5.46693 12.8566 5.46693 12.2332C5.46693 11.6099 4.95693 11.0999 4.33359 11.0999ZM10.0003 11.0999C9.37693 11.0999 8.8726 11.6099 8.8726 12.2332C8.8726 12.8566 9.37693 13.3666 10.0003 13.3666C10.6236 13.3666 11.1336 12.8566 11.1336 12.2332C11.1336 11.6099 10.6236 11.0999 10.0003 11.0999ZM4.42993 9.25822L4.44693 9.19022L4.95693 8.26655H9.1786C9.6036 8.26655 9.9776 8.03422 10.1703 7.68289L12.3576 3.71055L11.3716 3.16655H11.3659L10.7426 4.29989L9.1786 7.13322H5.20059L5.12693 6.98022L3.85759 4.29989L3.31926 3.16655L2.78659 2.03322H0.933594V3.16655H2.06693L4.10693 7.46755L3.34193 8.85589C3.25126 9.01455 3.20026 9.20155 3.20026 9.39989C3.20026 10.0232 3.71026 10.5332 4.33359 10.5332H11.1336V9.39989H4.57159C4.49793 9.39989 4.42993 9.33755 4.42993 9.25822Z" fill="white"/>
</g>
<defs>
<clipPath id="clip0_6203_659">
<rect width="13.6" height="13.6" fill="white" transform="translate(0.366699 0.899902)"/>
</clipPath>
</defs>
</svg>
